<?xml version="1.0" standalone="no"?>
<!DOCTYPE svg PUBLIC "-//W3C//DTD SVG 20010904//EN"
 "http://www.w3.org/TR/2001/REC-SVG-20010904/DTD/svg10.dtd">
<svg version="1.0" xmlns="http://www.w3.org/2000/svg"
 width="450.000000pt" height="450.000000pt" viewBox="0 0 450.000000 450.000000"
 preserveAspectRatio="xMidYMid meet">

<g transform="translate(0.000000,450.000000) scale(0.100000,-0.100000)"
fill="#000000" stroke="none">
<path d="M2315 3875 c-77 -42 -121 -118 -110 -188 8 -52 89 -227 105 -227 6 0
9 -4 6 -9 -3 -5 6 -25 20 -46 14 -21 23 -39 21 -42 -3 -2 -22 3 -43 12 -21 8
-45 13 -53 10 -9 -3 -12 -3 -8 2 5 4 -49 27 -119 50 -118 39 -152 46 -128 24
14 -13 135 -51 144 -46 5 3 10 1 12 -4 1 -5 49 -25 106 -44 56 -19 109 -40
117 -47 11 -9 22 1 56 52 76 115 142 255 147 312 5 68 -22 133 -73 172 -31 23
-49 29 -104 32 -47 2 -75 -2 -96 -13z m29 -67 c-4 -7 20 -5 79 7 9 2 17 -1 17
-7 0 -6 8 -7 17 -4 10 4 14 4 11 0 -4 -4 2 -18 12 -32 12 -15 20 -40 20 -63 0
-20 3 -39 8 -42 4 -2 2 -3 -4 -1 -6 1 -16 -6 -22 -17 -18 -29 -67 -50 -100
-43 -46 9 -86 57 -84 99 3 58 6 74 11 70 2 -3 10 0 18 6 9 8 10 15 3 24 -7 8
-5 12 5 12 8 0 12 -4 9 -9z"/>
<path d="M1785 3539 c-25 -6 -406 -109 -472 -128 -22 -6 -21 -9 39 -139 34
-73 66 -128 70 -124 9 9 -48 143 -66 154 -6 4 -8 8 -3 8 4 0 1 13 -8 30 -21
40 -19 60 5 60 11 0 20 3 20 8 0 4 10 7 23 8 28 1 190 44 197 53 3 3 21 8 40
9 19 2 37 7 40 10 3 4 10 7 15 7 6 0 38 6 72 14 60 13 66 13 137 -13 81 -28
96 -31 96 -16 0 5 -8 7 -17 3 -10 -3 -15 -2 -10 2 9 10 -63 37 -80 30 -7 -2
-13 0 -13 4 0 15 -54 28 -85 20z"/>
<path d="M680 3225 c-15 -18 -53 -183 -45 -196 4 -5 -3 -9 -13 -9 -11 0 -30
-9 -43 -21 -13 -11 -17 -17 -9 -13 8 4 5 -3 -8 -16 -26 -24 -25 -6 -6 -240 3
-41 10 -81 16 -87 13 -16 80 -17 96 -1 7 7 12 29 12 50 l0 38 173 -6 c94 -3
206 -2 247 3 l75 9 -4 -38 c-2 -21 2 -45 9 -53 15 -18 84 -20 98 -2 11 13 22
119 25 244 2 75 0 84 -22 105 -13 13 -21 17 -17 11 4 -7 2 -13 -3 -13 -6 0
-11 6 -11 14 0 8 -7 16 -15 20 -8 3 -15 13 -15 23 0 37 -40 177 -52 184 -7 5
-117 9 -244 9 -192 0 -234 -3 -244 -15z m469 -24 c10 -10 21 -39 25 -65 4 -25
11 -44 15 -41 5 2 6 -7 3 -20 -2 -14 2 -33 9 -42 12 -15 12 -16 -6 -9 -31 12
-382 19 -462 9 -85 -11 -82 -15 -57 94 8 37 22 74 31 81 12 9 73 12 220 12
185 0 205 -2 222 -19z m-463 -209 c6 -4 16 -17 22 -29 10 -19 8 -24 -14 -42
-15 -12 -36 -21 -48 -21 -30 0 -66 27 -66 50 0 36 72 65 106 42z m562 -8 c23
-16 29 -48 11 -60 -8 -4 -7 -9 2 -14 7 -5 -10 -7 -39 -6 -55 3 -82 18 -82 47
0 21 36 49 65 49 11 0 31 -7 43 -16z m-133 -134 c25 -11 -1 -11 -35 0 -20 6
-21 8 -5 8 11 0 29 -3 40 -8z m-410 -40 c-3 -5 -11 -10 -16 -10 -6 0 -7 5 -4
10 3 6 11 10 16 10 6 0 7 -4 4 -10z m322 -56 c-3 -3 -12 -4 -19 -1 -8 3 -5 6
6 6 11 1 17 -2 13 -5z"/>
<path d="M1426 3131 c-5 -8 30 -97 44 -111 3 -3 6 -11 8 -19 6 -26 75 -171 82
-171 4 0 7 -6 7 -14 0 -23 25 -76 36 -76 6 0 8 -3 4 -6 -3 -4 1 -24 10 -46
l16 -40 -81 -77 c-45 -42 -85 -77 -89 -78 -5 -2 -8 -9 -8 -15 0 -7 -4 -13 -10
-13 -17 0 -75 -48 -69 -57 3 -5 2 -7 -3 -6 -4 2 -25 -11 -45 -27 -33 -26 -88
-42 -88 -25 0 12 -80 51 -91 44 -6 -4 16 -21 51 -40 35 -18 67 -31 73 -27 6 3
7 1 3 -5 -4 -7 -3 -12 3 -12 17 0 331 281 325 291 -3 5 1 6 9 4 7 -3 22 3 32
15 17 19 17 21 0 60 -10 22 -22 40 -27 40 -5 0 -6 5 -3 10 4 6 -2 26 -13 44
-11 18 -25 49 -31 69 -7 22 -17 34 -23 31 -6 -4 -9 -1 -6 7 4 11 -92 242 -106
256 -2 3 -7 0 -10 -6z"/>
<path d="M2675 2854 c-71 -37 -95 -79 -95 -166 1 -84 28 -162 57 -166 19 -3
27 7 50 53 l28 56 115 -3 115 -3 18 -52 c15 -41 24 -52 45 -56 15 -3 29 -4 31
-2 10 10 31 126 31 170 0 114 -41 172 -115 160 -26 -3 -57 0 -84 10 -57 20
-157 19 -196 -1z"/>
<path d="M745 2569 c-22 -4 -71 -13 -110 -19 -104 -15 -128 -21 -118 -30 4 -4
73 3 152 16 l144 23 57 -29 c32 -16 60 -26 64 -23 3 4 6 1 6 -6 0 -11 47 -36
63 -33 4 1 16 -7 26 -17 10 -10 35 -25 55 -32 20 -7 36 -17 36 -22 0 -4 5 -5
10 -2 11 7 -5 35 -20 35 -4 0 -58 28 -121 62 -63 34 -122 61 -132 60 -9 0 -15
3 -12 8 12 19 -33 23 -100 9z"/>
<path d="M2085 2315 c-38 -13 -150 -49 -248 -80 -105 -33 -187 -65 -199 -77
-26 -26 -23 -47 33 -218 34 -107 50 -141 75 -165 31 -29 54 -98 54 -161 0 -23
4 -22 150 51 123 62 154 74 170 65 30 -16 41 -45 34 -90 -5 -31 -3 -40 8 -40
40 0 62 -75 37 -123 -9 -16 -9 -22 1 -25 8 -3 25 -16 38 -29 19 -19 23 -30 17
-51 -4 -15 -8 -43 -9 -62 -3 -61 -15 -77 -102 -136 -75 -51 -91 -58 -144 -62
-33 -2 -60 -7 -60 -11 0 -22 25 -89 38 -103 23 -27 57 -22 231 32 88 28 162
50 165 50 3 0 6 -9 6 -19 0 -16 -8 -20 -37 -23 l-37 -3 -52 -385 c-29 -212
-55 -402 -58 -422 l-6 -38 671 0 671 0 -7 168 c-7 182 -9 195 -23 232 -5 14
-13 48 -17 75 l-7 50 -22 -68 c-28 -85 -39 -97 -66 -72 -24 22 -27 89 -6 158
l14 45 -46 9 c-90 16 -83 74 10 84 38 4 67 15 91 33 l35 27 -5 213 c-5 194 -4
213 11 219 9 4 15 3 12 -2 -5 -8 44 -80 85 -125 17 -17 18 -17 43 23 14 22 26
43 26 46 0 3 9 24 20 48 43 91 60 163 66 273 4 61 4 122 1 136 -5 20 -85 125
-141 184 -6 7 -31 37 -55 68 -24 30 -48 53 -53 50 -4 -3 -7 0 -6 8 2 7 -3 12
-10 10 -8 -1 -11 2 -8 6 6 10 -18 34 -44 46 -8 3 -29 15 -46 25 -43 26 -185
59 -286 67 l-85 7 -24 -49 c-15 -31 -40 -60 -67 -79 -37 -25 -53 -30 -106 -30
-77 0 -110 20 -137 81 -11 24 -24 44 -30 44 -6 0 -8 -3 -6 -7 3 -5 -14 -9 -38
-10 -79 -4 -205 -42 -246 -75 -22 -17 -39 -38 -39 -47 0 -34 -20 9 -54 119
-40 128 -42 132 -73 149 -27 14 -24 14 -108 -14z m265 -235 c0 -5 -5 -10 -11
-10 -5 0 -7 5 -4 10 3 6 8 10 11 10 2 0 4 -4 4 -10z m1057 -222 c-3 -8 -6 -5
-6 6 -1 11 2 17 5 13 3 -3 4 -12 1 -19z m30 -130 c-3 -7 -5 -2 -5 12 0 14 2
19 5 13 2 -7 2 -19 0 -25z m-30 -65 c-3 -10 -5 -4 -5 12 0 17 2 24 5 18 2 -7
2 -21 0 -30z m55 -100 c-3 -16 -7 -22 -10 -15 -4 13 4 42 11 42 2 0 2 -12 -1
-27z m-5 -165 c-3 -8 -6 -5 -6 6 -1 11 2 17 5 13 3 -3 4 -12 1 -19z m-870
-230 c-3 -8 -6 -5 -6 6 -1 11 2 17 5 13 3 -3 4 -12 1 -19z"/>
</g>
</svg>
